<svg width="64" height="64" viewBox="0 0 64 64" fill="none" xmlns="http://www.w3.org/2000/svg">
<path d="M31.8222 5.33334C21.5022 5.33334 13.1555 13.68 13.1555 24C13.1555 38 31.8222 58.6667 31.8222 58.6667C31.8222 58.6667 50.4889 38 50.4889 24C50.4889 13.68 42.1422 5.33334 31.8222 5.33334Z" fill="#00878F"/>
<path d="M40.6518 18.6074C39.5994 18.2756 38.4426 18.1333 37.3333 18.1333C35.4844 18.1333 33.4933 18.5126 32.1185 19.5556C30.7437 18.5126 28.7525 18.1333 26.9037 18.1333C25.0548 18.1333 23.0637 18.5126 21.6888 19.5556V33.4459C21.6888 33.683 21.9259 33.92 22.1629 33.92C22.2577 33.92 22.3051 33.8726 22.4 33.8726C23.68 33.2563 25.5288 32.8296 26.9037 32.8296C28.7525 32.8296 30.7437 33.2089 32.1185 34.2519C33.3985 33.4459 35.7214 32.8296 37.3333 32.8296C38.8977 32.8296 40.5096 33.1141 41.837 33.8252C41.9318 33.8726 41.9792 33.8726 42.074 33.8726C42.3111 33.8726 42.5481 33.6356 42.5481 33.3985V19.5556C41.9792 19.1289 41.3629 18.8444 40.6518 18.6074ZM40.6518 31.4074C39.6088 31.0756 38.4711 30.9333 37.3333 30.9333C35.7214 30.9333 33.3985 31.5496 32.1185 32.3556V21.4519C33.3985 20.6459 35.7214 20.0296 37.3333 20.0296C38.4711 20.0296 39.6088 20.1718 40.6518 20.5037V31.4074Z" fill="white"/>
<path d="M37.3333 23.8222C38.1677 23.8222 38.9736 23.9076 39.7037 24.0687V22.6275C38.9547 22.4853 38.1487 22.4 37.3333 22.4C35.7215 22.4 34.2613 22.675 33.0667 23.187V24.7609C34.1381 24.1541 35.6267 23.8222 37.3333 23.8222Z" fill="white"/>
<path d="M33.0667 25.709V27.2829C34.1381 26.6761 35.6267 26.3443 37.3333 26.3443C38.1677 26.3443 38.9736 26.4296 39.7037 26.5908V25.1496C38.9547 25.0074 38.1487 24.9221 37.3333 24.9221C35.7215 24.9221 34.2613 25.2065 33.0667 25.709Z" fill="white"/>
<path d="M37.3333 27.4536C35.7215 27.4536 34.2613 27.7286 33.0667 28.2406V29.8145C34.1381 29.2077 35.6267 28.8758 37.3333 28.8758C38.1677 28.8758 38.9736 28.9612 39.7037 29.1224V27.6812C38.9547 27.5295 38.1487 27.4536 37.3333 27.4536Z" fill="white"/>
</svg>
