<svg width="64" height="64" viewBox="0 0 64 64" fill="none" xmlns="http://www.w3.org/2000/svg">
<path d="M31.8223 5.33334C21.5022 5.33334 13.1556 13.68 13.1556 24C13.1556 38 31.8223 58.6667 31.8223 58.6667C31.8223 58.6667 50.4889 38 50.4889 24C50.4889 13.68 42.1423 5.33334 31.8223 5.33334Z" fill="#DB0083"/>
<path d="M43.3777 24.4622V22.1867C37.1717 19.9111 32 14.2222 32 14.2222C32 14.2222 26.8283 19.9111 20.6222 22.1867V24.4622C20.6222 26.1575 21.5841 27.5911 22.9391 28.1714C22.8977 31.0158 22.6081 34.3495 21.6565 36.9778H42.3434C41.3918 34.3495 41.1022 31.0158 41.0608 28.1714C42.4158 27.5911 43.3777 26.1575 43.3777 24.4622ZM32 17.3056C33.3756 18.6027 35.6098 20.5369 38.3198 22.1867H25.6801C28.3901 20.5369 30.6243 18.6027 32 17.3056ZM33.0343 24.4622H36.1373C36.1373 25.4066 35.4443 26.1689 34.5858 26.1689C33.7273 26.1689 33.0343 25.4066 33.0343 24.4622ZM29.4141 26.1689C28.5556 26.1689 27.8626 25.4066 27.8626 24.4622H30.9656C30.9656 25.4066 30.2726 26.1689 29.4141 26.1689ZM25.7939 24.4622C25.7939 25.4066 25.1009 26.1689 24.2424 26.1689C23.3839 26.1689 22.6909 25.4066 22.6909 24.4622H25.7939ZM24.4079 34.7022C24.8113 32.586 24.9664 30.3559 24.9975 28.3534C25.7008 28.1828 26.3318 27.7959 26.8179 27.2384C27.0765 27.5228 27.3765 27.7504 27.6971 27.9438C27.5937 30.0715 27.4282 32.4949 27.1592 34.6908H24.4079V34.7022ZM29.259 34.7022C29.5072 32.6201 29.6624 30.4014 29.7554 28.4103C30.6243 28.3193 31.4207 27.8983 32 27.2498C32.5792 27.8983 33.3653 28.3193 34.2445 28.4103C34.3479 30.4014 34.4927 32.6201 34.741 34.7022H29.259ZM36.8304 34.7022C36.5511 32.4949 36.3856 30.0715 36.2925 27.9552C36.6131 27.7618 36.9234 27.5342 37.1717 27.2498C37.6578 27.7959 38.2888 28.1941 38.9921 28.3648C39.0232 30.3673 39.1783 32.5973 39.5817 34.7136H36.8304V34.7022ZM39.7575 26.1689C38.899 26.1689 38.206 25.4066 38.206 24.4622H41.3091C41.3091 25.4066 40.616 26.1689 39.7575 26.1689Z" fill="white"/>
</svg>
