<svg width="64" height="64" viewBox="0 0 64 64" fill="none" xmlns="http://www.w3.org/2000/svg">
<path d="M31.8223 5.33334C21.5022 5.33334 13.1556 13.68 13.1556 24C13.1556 38 31.8223 58.6667 31.8223 58.6667C31.8223 58.6667 50.4889 38 50.4889 24C50.4889 13.68 42.1423 5.33334 31.8223 5.33334Z" fill="#371700"/>
<path d="M24.4148 27.2593C25.4577 27.2593 26.3111 26.4059 26.3111 25.363C26.3111 24.32 25.4577 23.4667 24.4148 23.4667C23.3718 23.4667 22.5185 24.32 22.5185 25.363C22.5185 26.4059 23.3718 27.2593 24.4148 27.2593ZM25.4862 28.3022C25.1354 28.2453 24.7846 28.2074 24.4148 28.2074C23.4761 28.2074 22.5849 28.4065 21.7789 28.7573C21.0773 29.0607 20.6222 29.7434 20.6222 30.5114V32H24.8889V30.4735C24.8889 29.6865 25.1069 28.947 25.4862 28.3022ZM39.5852 27.2593C40.6281 27.2593 41.4814 26.4059 41.4814 25.363C41.4814 24.32 40.6281 23.4667 39.5852 23.4667C38.5422 23.4667 37.6889 24.32 37.6889 25.363C37.6889 26.4059 38.5422 27.2593 39.5852 27.2593ZM43.3777 30.5114C43.3777 29.7434 42.9226 29.0607 42.221 28.7573C41.4151 28.4065 40.5238 28.2074 39.5852 28.2074C39.2154 28.2074 38.8646 28.2453 38.5137 28.3022C38.893 28.947 39.1111 29.6865 39.1111 30.4735V32H43.3777V30.5114ZM36.0201 27.8756C34.9108 27.3825 33.5455 27.0222 32 27.0222C30.4545 27.0222 29.0892 27.392 27.9798 27.8756C26.9558 28.3307 26.3111 29.3547 26.3111 30.4735V32H37.6889V30.4735C37.6889 29.3547 37.0441 28.3307 36.0201 27.8756ZM28.2737 30.1037C28.3591 29.8856 28.397 29.7339 29.1366 29.4495C30.0563 29.0892 31.0234 28.9185 32 28.9185C32.9766 28.9185 33.9437 29.0892 34.8634 29.4495C35.5935 29.7339 35.6314 29.8856 35.7262 30.1037H28.2737ZM32 22.5185C32.5215 22.5185 32.9481 22.9452 32.9481 23.4667C32.9481 23.9881 32.5215 24.4148 32 24.4148C31.4785 24.4148 31.0518 23.9881 31.0518 23.4667C31.0518 22.9452 31.4785 22.5185 32 22.5185ZM32 20.6222C30.426 20.6222 29.1555 21.8927 29.1555 23.4667C29.1555 25.0406 30.426 26.3111 32 26.3111C33.5739 26.3111 34.8444 25.0406 34.8444 23.4667C34.8444 21.8927 33.5739 20.6222 32 20.6222Z" fill="white"/>
</svg>
