<svg width="64" height="64" viewBox="0 0 64 64" fill="none" xmlns="http://www.w3.org/2000/svg">
<path d="M31.8223 5.33334C21.5022 5.33334 13.1556 13.68 13.1556 24C13.1556 38 31.8223 58.6667 31.8223 58.6667C31.8223 58.6667 50.4889 38 50.4889 24C50.4889 13.68 42.1423 5.33334 31.8223 5.33334Z" fill="#737373"/>
<path d="M32 14.5778C25.7194 14.5778 20.6222 19.675 20.6222 25.9556C20.6222 32.2361 25.7194 37.3333 32 37.3333C38.2805 37.3333 43.3777 32.2361 43.3777 25.9556C43.3777 19.675 38.2805 14.5778 32 14.5778ZM33.1377 18.3325L34.6737 17.2516C36.7445 17.8887 38.5081 19.2541 39.6572 21.0517L39.2135 22.5764L37.6775 23.0997L33.1377 19.9253V18.3325ZM29.3262 17.2516L30.8622 18.3325V19.9253L26.3225 23.0997L24.7865 22.5764L24.3427 21.0517C25.4919 19.2654 27.2554 17.9001 29.3262 17.2516ZM26.4021 31.7696L25.105 31.8834C23.7283 30.2905 22.8977 28.2197 22.8977 25.9556C22.8977 25.819 22.9091 25.6939 22.9205 25.5573L24.0583 24.7268L25.6284 25.2729L27.2896 30.2109L26.4021 31.7696ZM34.8444 34.5913C33.9456 34.8871 32.9898 35.0578 32 35.0578C31.0101 35.0578 30.0544 34.8871 29.1555 34.5913L28.3705 32.896L29.0986 31.6445H34.9127L35.6409 32.9074L34.8444 34.5913ZM34.5827 29.3689H29.4172L27.8812 24.795L32 21.9051L36.1301 24.795L34.5827 29.3689ZM38.8949 31.8834L37.5978 31.7696L36.699 30.2109L38.3601 25.2729L39.9417 24.7381L41.0794 25.5687C41.0908 25.6939 41.1022 25.819 41.1022 25.9556C41.1022 28.2197 40.2716 30.2905 38.8949 31.8834Z" fill="white"/>
</svg>
