<svg width="64" height="64" viewBox="0 0 64 64" fill="none" xmlns="http://www.w3.org/2000/svg">
<path d="M31.8222 5.33334C21.5022 5.33334 13.1555 13.68 13.1555 24C13.1555 38 31.8222 58.6667 31.8222 58.6667C31.8222 58.6667 50.4889 38 50.4889 24C50.4889 13.68 42.1422 5.33334 31.8222 5.33334Z" fill="#CC0000"/>
<path d="M22.0444 34.4083L35.3185 29.6675L26.7852 21.1342L22.0444 34.4083ZM31.8578 28.8901L25.1733 31.2794L27.5627 24.595L31.8578 28.8901Z" fill="white"/>
<path d="M33.9247 25.4293L39.2249 20.1291C39.6895 19.6646 40.4385 19.6646 40.9031 20.1291L41.4625 20.6886L42.4675 19.6835L41.9081 19.1241C40.8936 18.1096 39.2343 18.1096 38.2198 19.1241L32.9197 24.4243L33.9247 25.4293Z" fill="white"/>
<path d="M29.6865 20.0723L29.1271 20.6317L30.1321 21.6367L30.6915 21.0773C31.706 20.0628 31.706 18.4035 30.6915 17.389L30.1321 16.8296L29.1271 17.8441L29.6865 18.4035C30.1416 18.8587 30.1416 19.6172 29.6865 20.0723Z" fill="white"/>
<path d="M36.3236 24.813L34.816 26.3206L35.8211 27.3256L37.3286 25.818C37.7932 25.3535 38.5423 25.3535 39.0069 25.818L40.5334 27.3446L41.5384 26.3395L40.0119 24.813C38.9879 23.7985 37.3381 23.7985 36.3236 24.813Z" fill="white"/>
<path d="M34.4273 19.1241L31.0234 22.528L32.0285 23.533L35.4323 20.1292C36.4468 19.1147 36.4468 17.4554 35.4323 16.4409L33.9248 14.9333L32.9197 15.9384L34.4273 17.4459C34.8824 17.9105 34.8824 18.669 34.4273 19.1241Z" fill="white"/>
</svg>
