<svg width="64" height="64" viewBox="0 0 64 64" fill="none" xmlns="http://www.w3.org/2000/svg">
<path d="M31.8222 5.33334C21.5022 5.33334 13.1555 13.68 13.1555 24C13.1555 38 31.8222 58.6667 31.8222 58.6667C31.8222 58.6667 50.4889 38 50.4889 24C50.4889 13.68 42.1422 5.33334 31.8222 5.33334Z" fill="#8D5227"/>
<path d="M32 15.2889C27.2877 15.2889 23.4667 19.1099 23.4667 23.8222C23.4667 28.5345 27.2877 32.3556 32 32.3556C32.787 32.3556 33.4222 31.7203 33.4222 30.9334C33.4222 30.5636 33.28 30.2317 33.0525 29.9757C32.8344 29.7292 32.6922 29.3974 32.6922 29.0371C32.6922 28.2501 33.3274 27.6148 34.1144 27.6148H35.7926C38.4095 27.6148 40.5333 25.491 40.5333 22.8741C40.5333 18.6833 36.7123 15.2889 32 15.2889ZM26.7852 23.8222C25.9982 23.8222 25.363 23.187 25.363 22.4C25.363 21.6131 25.9982 20.9778 26.7852 20.9778C27.5722 20.9778 28.2074 21.6131 28.2074 22.4C28.2074 23.187 27.5722 23.8222 26.7852 23.8222ZM29.6296 20.0297C28.8427 20.0297 28.2074 19.3944 28.2074 18.6074C28.2074 17.8205 28.8427 17.1852 29.6296 17.1852C30.4166 17.1852 31.0519 17.8205 31.0519 18.6074C31.0519 19.3944 30.4166 20.0297 29.6296 20.0297ZM34.3704 20.0297C33.5834 20.0297 32.9482 19.3944 32.9482 18.6074C32.9482 17.8205 33.5834 17.1852 34.3704 17.1852C35.1573 17.1852 35.7926 17.8205 35.7926 18.6074C35.7926 19.3944 35.1573 20.0297 34.3704 20.0297ZM37.2148 23.8222C36.4279 23.8222 35.7926 23.187 35.7926 22.4C35.7926 21.6131 36.4279 20.9778 37.2148 20.9778C38.0018 20.9778 38.637 21.6131 38.637 22.4C38.637 23.187 38.0018 23.8222 37.2148 23.8222Z" fill="white"/>
</svg>
