<svg width="89" height="48" viewBox="0 0 89 48" fill="none" xmlns="http://www.w3.org/2000/svg">
<path d="M8.31775 42L8.31775 39L34.0272 39L34.0272 42L8.31775 42Z" fill="#7A3B00"/>
<path d="M22.4957 1.34375C19.8743 1.34375 17.754 3.44672 17.754 6.04688C17.754 9.5742 22.4957 14.7813 22.4957 14.7813C22.4957 14.7813 27.2375 9.5742 27.2375 6.04688C27.2375 3.44672 25.1173 1.34375 22.4957 1.34375ZM22.4957 7.72658C21.5609 7.72658 20.8023 6.97406 20.8023 6.04688C20.8023 5.11969 21.5609 4.36718 22.4957 4.36718C23.4305 4.36718 24.1892 5.11969 24.1892 6.04688C24.1892 6.97406 23.4305 7.72658 22.4957 7.72658Z" fill="#FF6B00"/>
<path d="M15.7342 23.76C15.2442 22.824 14.5636 22.122 13.6925 21.654C12.8214 21.168 11.8142 20.925 10.6709 20.925C9.41871 20.925 8.30262 21.204 7.32264 21.762C6.34266 22.32 5.57138 23.112 5.0088 24.138C4.46436 25.164 4.19214 26.352 4.19214 27.702C4.19214 29.052 4.46436 30.249 5.0088 31.293C5.57138 32.319 6.34266 33.111 7.32264 33.669C8.30262 34.227 9.41871 34.506 10.6709 34.506C12.3587 34.506 13.7288 34.038 14.7814 33.102C15.834 32.166 16.4782 30.897 16.7141 29.295H9.60927V26.838H20.0352V29.241C19.8356 30.699 19.3093 32.04 18.4563 33.264C17.6215 34.488 16.5236 35.469 15.1625 36.207C13.8196 36.927 12.3224 37.287 10.6709 37.287C8.89243 37.287 7.2682 36.882 5.79823 36.072C4.32825 35.244 3.15772 34.101 2.28662 32.643C1.43368 31.185 1.0072 29.538 1.0072 27.702C1.0072 25.866 1.43368 24.219 2.28662 22.761C3.15772 21.303 4.32825 20.169 5.79823 19.359C7.28635 18.531 8.91058 18.117 10.6709 18.117C12.6853 18.117 14.4729 18.612 16.0336 19.602C17.6125 20.574 18.7558 21.96 19.4635 23.76H15.7342ZM32.1518 37.314C30.8815 37.314 29.7382 37.098 28.7219 36.666C27.7056 36.216 26.9071 35.586 26.3264 34.776C25.7457 33.966 25.4553 33.021 25.4553 31.941H28.7763C28.8489 32.751 29.1665 33.417 29.7291 33.939C30.3098 34.461 31.1174 34.722 32.1518 34.722C33.2226 34.722 34.0574 34.47 34.6562 33.966C35.2551 33.444 35.5546 32.778 35.5546 31.968C35.5546 31.338 35.364 30.825 34.9829 30.429C34.6199 30.033 34.1572 29.727 33.5946 29.511C33.0502 29.295 32.2879 29.061 31.308 28.809C30.0739 28.485 29.0667 28.161 28.2864 27.837C27.5241 27.495 26.8708 26.973 26.3264 26.271C25.782 25.569 25.5097 24.633 25.5097 23.463C25.5097 22.383 25.782 21.438 26.3264 20.628C26.8708 19.818 27.633 19.197 28.613 18.765C29.593 18.333 30.7272 18.117 32.0157 18.117C33.8487 18.117 35.3459 18.576 36.5073 19.494C37.6869 20.394 38.3403 21.636 38.4673 23.22H35.0373C34.9829 22.536 34.6562 21.951 34.0574 21.465C33.4585 20.979 32.6691 20.736 31.6891 20.736C30.7998 20.736 30.0739 20.961 29.5113 21.411C28.9487 21.861 28.6675 22.509 28.6675 23.355C28.6675 23.931 28.8399 24.408 29.1847 24.786C29.5476 25.146 30.0013 25.434 30.5458 25.65C31.0902 25.866 31.8343 26.1 32.7779 26.352C34.0301 26.694 35.0464 27.036 35.8268 27.378C36.6253 27.72 37.2967 28.251 37.8412 28.971C38.4038 29.673 38.6851 30.618 38.6851 31.806C38.6851 32.76 38.4219 33.66 37.8957 34.506C37.3875 35.352 36.6343 36.036 35.6362 36.558C34.6562 37.062 33.4948 37.314 32.1518 37.314ZM43.7895 24.759V32.994C43.7895 33.552 43.9166 33.957 44.1706 34.209C44.4429 34.443 44.8966 34.56 45.5317 34.56H47.4373V37.125H44.9873C43.5899 37.125 42.5192 36.801 41.7751 36.153C41.0311 35.505 40.659 34.452 40.659 32.994V24.759H38.8896V22.248H40.659V18.549H43.7895V22.248H47.4373V24.759H43.7895ZM61.7033 22.248V37.125H58.6V35.37C58.1101 35.982 57.4658 36.468 56.6673 36.828C55.887 37.17 55.0521 37.341 54.1629 37.341C52.9833 37.341 51.9217 37.098 50.978 36.612C50.0524 36.126 49.3174 35.406 48.773 34.452C48.2467 33.498 47.9836 32.346 47.9836 30.996V22.248H51.0596V30.537C51.0596 31.869 51.3954 32.895 52.0668 33.615C52.7383 34.317 53.6548 34.668 54.8162 34.668C55.9777 34.668 56.8941 34.317 57.5656 33.615C58.2552 32.895 58.6 31.869 58.6 30.537V22.248H61.7033ZM66.7235 24.408C67.1772 23.652 67.776 23.067 68.5201 22.653C69.2823 22.221 70.1806 22.005 71.215 22.005V25.191H70.4256C69.2097 25.191 68.2842 25.497 67.649 26.109C67.032 26.721 66.7235 27.783 66.7235 29.295V37.125H63.6202V22.248H66.7235V24.408ZM70.8555 29.619C70.8555 28.125 71.164 26.802 71.781 25.65C72.4162 24.498 73.2691 23.607 74.3399 22.977C75.4287 22.329 76.6265 22.005 77.9331 22.005C79.1127 22.005 80.1381 22.239 81.0092 22.707C81.8984 23.157 82.6062 23.724 83.1325 24.408V22.248H86.263V37.125H83.1325V34.911C82.6062 35.613 81.8894 36.198 80.982 36.666C80.0746 37.134 79.0402 37.368 77.8787 37.368C76.5902 37.368 75.4106 37.044 74.3399 36.396C73.2691 35.73 72.4162 34.812 71.781 33.642C71.164 32.454 70.8555 31.113 70.8555 29.619ZM83.1325 29.673C83.1325 28.647 82.9147 27.756 82.4792 27C82.0618 26.244 81.5083 25.668 80.8186 25.272C80.129 24.876 79.385 24.678 78.5865 24.678C77.788 24.678 77.0439 24.876 76.3543 25.272C75.6647 25.65 75.1021 26.217 74.6665 26.973C74.2491 27.711 74.0404 28.593 74.0404 29.619C74.0404 30.645 74.2491 31.545 74.6665 32.319C75.1021 33.093 75.6647 33.687 76.3543 34.101C77.062 34.497 77.8061 34.695 78.5865 34.695C79.385 34.695 80.129 34.497 80.8186 34.101C81.5083 33.705 82.0618 33.129 82.4792 32.373C82.9147 31.599 83.1325 30.699 83.1325 29.673Z" fill="#7A3B00"/>
<path d="M24.0215 18.36V37.125H20.9182V18.36H24.0215Z" fill="#FF6B00"/>
<path d="M20.7944 18.375H24.1971V42C22.3178 42 20.7944 40.4891 20.7944 38.625V18.375Z" fill="#FF6B00"/>
<path d="M27.2266 39V41.0625H24.202L24.1986 36.2518C24.1966 36.1905 24.1966 36.1314 24.1984 36.0751L24.1986 36.2518C24.2325 37.3008 24.8569 39 27.2266 39Z" fill="#FF6B00"/>
<path d="M24.1971 42L24.1971 39L79.7747 39L79.7747 42L24.1971 42Z" fill="#FF6B00"/>
</svg>
