<svg width="64" height="64" viewBox="0 0 64 64" fill="none" xmlns="http://www.w3.org/2000/svg">
<path d="M31.8223 5.33334C21.5022 5.33334 13.1556 13.68 13.1556 24C13.1556 38 31.8223 58.6667 31.8223 58.6667C31.8223 58.6667 50.4889 38 50.4889 24C50.4889 13.68 42.1423 5.33334 31.8223 5.33334Z" fill="#7500D1"/>
<path d="M38.0445 16.3556V18.2519H36.1482V16.3556H28.563V18.2519H26.6667V16.3556H24.7704V33.4222H26.6667V31.5259H28.563V33.4222H36.1482V31.5259H38.0445V33.4222H39.9408V16.3556H38.0445ZM28.563 29.6296H26.6667V27.7333H28.563V29.6296ZM28.563 25.837H26.6667V23.9407H28.563V25.837ZM28.563 22.0444H26.6667V20.1482H28.563V22.0444ZM38.0445 29.6296H36.1482V27.7333H38.0445V29.6296ZM38.0445 25.837H36.1482V23.9407H38.0445V25.837ZM38.0445 22.0444H36.1482V20.1482H38.0445V22.0444Z" fill="white"/>
</svg>
