<svg width="64" height="64" viewBox="0 0 64 64" fill="none" xmlns="http://www.w3.org/2000/svg">
<path d="M31.8223 5.33334C21.5022 5.33334 13.1556 13.68 13.1556 24C13.1556 38 31.8223 58.6667 31.8223 58.6667C31.8223 58.6667 50.4889 38 50.4889 24C50.4889 13.68 42.1423 5.33334 31.8223 5.33334Z" fill="#0052CE"/>
<path d="M39.2404 21.5467C39.8117 21.5467 40.2747 21.0373 40.2747 20.4089C40.2747 19.7805 39.8117 19.2711 39.2404 19.2711C38.6691 19.2711 38.2061 19.7805 38.2061 20.4089C38.2061 21.0373 38.6691 21.5467 39.2404 21.5467Z" fill="white"/>
<path d="M35.103 21.5467C35.6743 21.5467 36.1374 21.0373 36.1374 20.4089C36.1374 19.7805 35.6743 19.2711 35.103 19.2711C34.5318 19.2711 34.0687 19.7805 34.0687 20.4089C34.0687 21.0373 34.5318 21.5467 35.103 21.5467Z" fill="white"/>
<path d="M37.1614 23.2533C35.734 23.2533 34.5755 24.2091 34.5755 25.3924H39.7472C39.7472 24.2091 38.5888 23.2533 37.1614 23.2533Z" fill="white"/>
<path d="M20.6222 31.2178C20.6222 34.9838 23.4046 38.0444 26.8283 38.0444C30.2519 38.0444 33.0343 34.9838 33.0343 31.2178V23.2533H20.6222V31.2178ZM22.6909 25.5289H30.9656V31.2178C30.9656 33.7323 29.1142 35.7689 26.8283 35.7689C24.5424 35.7689 22.6909 33.7323 22.6909 31.2178V25.5289Z" fill="white"/>
<path d="M30.9656 15.2889V21.5467H33.0343V17.5644H41.3091V23.2533C41.3091 25.7678 39.4576 27.8044 37.1717 27.8044C36.1891 27.8044 35.2995 27.4062 34.5858 26.7804V29.4542C35.3719 29.8524 36.2511 30.08 37.1717 30.08C40.5954 30.08 43.3778 27.0194 43.3778 23.2533V15.2889H30.9656Z" fill="white"/>
<path d="M24.7596 29.5111C25.3308 29.5111 25.7939 29.0017 25.7939 28.3733C25.7939 27.7449 25.3308 27.2355 24.7596 27.2355C24.1883 27.2355 23.7252 27.7449 23.7252 28.3733C23.7252 29.0017 24.1883 29.5111 24.7596 29.5111Z" fill="white"/>
<path d="M28.897 29.5111C29.4682 29.5111 29.9313 29.0017 29.9313 28.3733C29.9313 27.7449 29.4682 27.2355 28.897 27.2355C28.3257 27.2355 27.8626 27.7449 27.8626 28.3733C27.8626 29.0017 28.3257 29.5111 28.897 29.5111Z" fill="white"/>
<path d="M26.8282 33.3568C28.2556 33.3568 29.4141 32.4011 29.4141 31.2178H24.2424C24.2424 32.4011 25.4008 33.3568 26.8282 33.3568Z" fill="white"/>
</svg>
