<svg width="64" height="64" viewBox="0 0 64 64" fill="none" xmlns="http://www.w3.org/2000/svg">
<path d="M31.8222 5.33334C21.5022 5.33334 13.1555 13.68 13.1555 24C13.1555 38 31.8222 58.6667 31.8222 58.6667C31.8222 58.6667 50.4889 38 50.4889 24C50.4889 13.68 42.1422 5.33334 31.8222 5.33334Z" fill="#FF6B00"/>
<path d="M26.311 22.2815C25.268 22.2815 24.4147 23.1348 24.4147 24.1778C24.4147 25.2207 25.268 26.0741 26.311 26.0741C27.3539 26.0741 28.2073 25.2207 28.2073 24.1778C28.2073 23.1348 27.3539 22.2815 26.311 22.2815ZM37.6887 22.2815C36.6458 22.2815 35.7924 23.1348 35.7924 24.1778C35.7924 25.2207 36.6458 26.0741 37.6887 26.0741C38.7317 26.0741 39.585 25.2207 39.585 24.1778C39.585 23.1348 38.7317 22.2815 37.6887 22.2815ZM31.9999 22.2815C30.9569 22.2815 30.1036 23.1348 30.1036 24.1778C30.1036 25.2207 30.9569 26.0741 31.9999 26.0741C33.0428 26.0741 33.8962 25.2207 33.8962 24.1778C33.8962 23.1348 33.0428 22.2815 31.9999 22.2815Z" fill="white"/>
</svg>
