<svg width="300" height="300" viewBox="0 0 300 300" fill="none" xmlns="http://www.w3.org/2000/svg">
<g filter="url(#filter0_b)">
<rect width="300" height="300" rx="150" fill="url(#paint0_radial)"/>
<rect width="8" height="68" transform="matrix(-4.37114e-08 1 1 4.37114e-08 55 180)" fill="#7A3B00"/>
<path d="M92.5 79.5833C85.5662 79.5833 79.9583 85.1913 79.9583 92.125C79.9583 101.531 92.5 115.417 92.5 115.417C92.5 115.417 105.042 101.531 105.042 92.125C105.042 85.1913 99.4337 79.5833 92.5 79.5833ZM92.5 96.6042C90.0275 96.6042 88.0208 94.5975 88.0208 92.125C88.0208 89.6525 90.0275 87.6458 92.5 87.6458C94.9725 87.6458 96.9791 89.6525 96.9791 92.125C96.9791 94.5975 94.9725 96.6042 92.5 96.6042Z" fill="#FF6B00"/>
<path d="M74.616 139.36C73.32 136.864 71.52 134.992 69.216 133.744C66.912 132.448 64.248 131.8 61.224 131.8C57.912 131.8 54.96 132.544 52.368 134.032C49.776 135.52 47.736 137.632 46.248 140.368C44.808 143.104 44.088 146.272 44.088 149.872C44.088 153.472 44.808 156.664 46.248 159.448C47.736 162.184 49.776 164.296 52.368 165.784C54.96 167.272 57.912 168.016 61.224 168.016C65.688 168.016 69.312 166.768 72.096 164.272C74.88 161.776 76.584 158.392 77.208 154.12H58.416V147.568H85.992V153.976C85.464 157.864 84.072 161.44 81.816 164.704C79.608 167.968 76.704 170.584 73.104 172.552C69.552 174.472 65.592 175.432 61.224 175.432C56.52 175.432 52.224 174.352 48.336 172.192C44.448 169.984 41.352 166.936 39.048 163.048C36.792 159.16 35.664 154.768 35.664 149.872C35.664 144.976 36.792 140.584 39.048 136.696C41.352 132.808 44.448 129.784 48.336 127.624C52.272 125.416 56.568 124.312 61.224 124.312C66.552 124.312 71.28 125.632 75.408 128.272C79.584 130.864 82.608 134.56 84.48 139.36H74.616ZM118.04 175.504C114.68 175.504 111.656 174.928 108.968 173.776C106.28 172.576 104.168 170.896 102.632 168.736C101.096 166.576 100.328 164.056 100.328 161.176H109.112C109.304 163.336 110.144 165.112 111.632 166.504C113.168 167.896 115.304 168.592 118.04 168.592C120.872 168.592 123.08 167.92 124.664 166.576C126.248 165.184 127.04 163.408 127.04 161.248C127.04 159.568 126.536 158.2 125.528 157.144C124.568 156.088 123.344 155.272 121.856 154.696C120.416 154.12 118.4 153.496 115.808 152.824C112.544 151.96 109.88 151.096 107.816 150.232C105.8 149.32 104.072 147.928 102.632 146.056C101.192 144.184 100.472 141.688 100.472 138.568C100.472 135.688 101.192 133.168 102.632 131.008C104.072 128.848 106.088 127.192 108.68 126.04C111.272 124.888 114.272 124.312 117.68 124.312C122.528 124.312 126.488 125.536 129.56 127.984C132.68 130.384 134.408 133.696 134.744 137.92H125.672C125.528 136.096 124.664 134.536 123.08 133.24C121.496 131.944 119.408 131.296 116.816 131.296C114.464 131.296 112.544 131.896 111.056 133.096C109.568 134.296 108.824 136.024 108.824 138.28C108.824 139.816 109.28 141.088 110.192 142.096C111.152 143.056 112.352 143.824 113.792 144.4C115.232 144.976 117.2 145.6 119.696 146.272C123.008 147.184 125.696 148.096 127.76 149.008C129.872 149.92 131.648 151.336 133.088 153.256C134.576 155.128 135.32 157.648 135.32 160.816C135.32 163.36 134.624 165.76 133.232 168.016C131.888 170.272 129.896 172.096 127.256 173.488C124.664 174.832 121.592 175.504 118.04 175.504ZM148.821 142.024V163.984C148.821 165.472 149.157 166.552 149.829 167.224C150.549 167.848 151.749 168.16 153.429 168.16H158.469V175H151.989C148.293 175 145.461 174.136 143.493 172.408C141.525 170.68 140.541 167.872 140.541 163.984V142.024H135.861V135.328H140.541V125.464H148.821V135.328H158.469V142.024H148.821ZM196.202 135.328V175H187.994V170.32C186.698 171.952 184.994 173.248 182.882 174.208C180.818 175.12 178.61 175.576 176.258 175.576C173.138 175.576 170.33 174.928 167.834 173.632C165.386 172.336 163.442 170.416 162.002 167.872C160.61 165.328 159.914 162.256 159.914 158.656V135.328H168.05V157.432C168.05 160.984 168.938 163.72 170.714 165.64C172.49 167.512 174.914 168.448 177.986 168.448C181.058 168.448 183.482 167.512 185.258 165.64C187.082 163.72 187.994 160.984 187.994 157.432V135.328H196.202ZM209.48 141.088C210.68 139.072 212.264 137.512 214.232 136.408C216.248 135.256 218.624 134.68 221.36 134.68V143.176H219.272C216.056 143.176 213.608 143.992 211.928 145.624C210.296 147.256 209.48 150.088 209.48 154.12V175H201.272V135.328H209.48V141.088ZM220.409 154.984C220.409 151 221.225 147.472 222.857 144.4C224.537 141.328 226.793 138.952 229.625 137.272C232.505 135.544 235.673 134.68 239.129 134.68C242.249 134.68 244.961 135.304 247.265 136.552C249.617 137.752 251.489 139.264 252.881 141.088V135.328H261.161V175H252.881V169.096C251.489 170.968 249.593 172.528 247.193 173.776C244.793 175.024 242.057 175.648 238.985 175.648C235.577 175.648 232.457 174.784 229.625 173.056C226.793 171.28 224.537 168.832 222.857 165.712C221.225 162.544 220.409 158.968 220.409 154.984ZM252.881 155.128C252.881 152.392 252.305 150.016 251.153 148C250.049 145.984 248.585 144.448 246.761 143.392C244.937 142.336 242.969 141.808 240.857 141.808C238.745 141.808 236.777 142.336 234.953 143.392C233.129 144.4 231.641 145.912 230.489 147.928C229.385 149.896 228.833 152.248 228.833 154.984C228.833 157.72 229.385 160.12 230.489 162.184C231.641 164.248 233.129 165.832 234.953 166.936C236.825 167.992 238.793 168.52 240.857 168.52C242.969 168.52 244.937 167.992 246.761 166.936C248.585 165.88 250.049 164.344 251.153 162.328C252.305 160.264 252.881 157.864 252.881 155.128Z" fill="#7A3B00"/>
<path d="M96.5355 124.96V175H88.3275V124.96H96.5355Z" fill="#FF6B00"/>
<path d="M88 125H97V188C92.0294 188 88 183.971 88 179V125Z" fill="#FF6B00"/>
<path d="M105.013 180V185.5H97.013L97.0039 172.671C96.9987 172.508 96.9988 172.351 97.0036 172.2L97.0039 172.671C97.0936 175.469 98.7453 180 105.013 180Z" fill="#FF6B00"/>
<rect width="7.99999" height="147" transform="matrix(-4.37114e-08 1 1 4.37114e-08 97 180)" fill="#FF6B00"/>
</g>
<defs>
<filter id="filter0_b" x="-4" y="-4" width="308" height="308" filterUnits="userSpaceOnUse" color-interpolation-filters="sRGB">
<feFlood flood-opacity="0" result="BackgroundImageFix"/>
<feGaussianBlur in="BackgroundImage" stdDeviation="2"/>
<feComposite in2="SourceAlpha" operator="in" result="effect1_backgroundBlur"/>
<feBlend mode="normal" in="SourceGraphic" in2="effect1_backgroundBlur" result="shape"/>
</filter>
<radialGradient id="paint0_radial" cx="0" cy="0" r="1" gradientUnits="userSpaceOnUse" gradientTransform="translate(95 117) rotate(41.7547) scale(274.798)">
<stop stop-color="#FFEBD3"/>
<stop offset="1" stop-color="#EBC181"/>
<stop offset="1" stop-color="#E8C176"/>
</radialGradient>
</defs>
</svg>
